<?xml version="1.0" standalone="no"?>
<!DOCTYPE svg PUBLIC "-//W3C//DTD SVG 1.1//EN" "http://www.w3.org/Graphics/SVG/1.1/DTD/svg11.dtd" >
<svg>
<metadata>
Created by FontForge 20090622 at Sat Oct  3 17:49:22 2020
 By deploy user
&#194;&#169; Copyright Made with yourfonts.com. Copyright &#194;&#169; 2011 YourFonts. All rights reserved., FFDec v.10.0.0.
</metadata>
<defs>
<font id="JoeFont" horiz-adv-x="729" >
  <font-face 
    font-family="Joe Font"
    font-weight="400"
    font-style="italic"
    font-stretch="normal"
    units-per-em="1024"
    panose-1="0 0 0 0 0 0 0 0 0 0"
    ascent="819"
    descent="-205"
    x-height="541"
    cap-height="839"
    bbox="0 -383 1018 1051"
    underline-thickness="60"
    underline-position="30"
    slope="10"
    unicode-range="U+0020-U+2122"
  />
<missing-glyph horiz-adv-x="512" 
d="M0 683v-683h438v683h-438zM365 610v-537h-292v537h292z" />
    <glyph glyph-name=".notdef" horiz-adv-x="512" 
d="M0 683v-683h438v683h-438zM365 610v-537h-292v537h292z" />
    <glyph glyph-name="glyph1" horiz-adv-x="0" 
 />
    <glyph glyph-name="glyph2" horiz-adv-x="512" 
 />
    <glyph glyph-name="space" unicode=" " horiz-adv-x="410" 
 />
    <glyph glyph-name="exclam" unicode="!" horiz-adv-x="463" 
d="M136 170v0q-73 0 -106 -96q0 -80 85 -85h11q58 0 85 64v53q-17 42 -75 64v0zM359 871v0q-82 0 -223 -521q0 -53 32 -63h64q37 0 191 531v21q0 25 -64 32v0z" />
    <glyph glyph-name="quotedbl" unicode="&#x22;" horiz-adv-x="283" 
d="M62 966v0q-32 0 -32 -117v-31q0 -79 32 -85h32q21 0 21 21v149q0 53 -32 63h-21v0zM158 903v0v-149q0 -21 21 -21h53l11 53v127q0 53 -32 64h-32l-21 -74v0z" />
    <glyph glyph-name="numbersign" unicode="#" horiz-adv-x="931" 
d="M413 584v0q106 11 159 11h21q-32 -144 -32 -160q-145 -10 -180 -10h-11q0 6 43 159v0zM413 966v0q-74 -287 -107 -287h-53q-127 0 -127 -42v-42q108 -11 170 -11l-53 -149q0 -53 -128 -53v11l-85 -22v-21q15 -42 96 -42h74l-42 -234q0 -42 42 -64h43q42 0 85 255
q0 64 201 64h11q-42 -244 -42 -287v-10q4 -22 53 -43q57 0 85 106q29 245 53 245h106q96 0 96 53q-8 53 -32 53h-170q21 159 53 159h106q43 26 43 43v42q0 18 -22 21h-127q21 120 21 192l-11 53h-53q-66 -255 -95 -255h-160q32 127 32 233v11q-16 32 -32 32h-10l-21 -11v0z
" />
    <glyph glyph-name="dollar" unicode="$" horiz-adv-x="835" 
d="M540 318v0q127 -45 127 -127v-21q-49 -75 -127 -75v223v0zM391 361v0l22 -11q-11 -193 -11 -244v-11h-53q0 118 21 266h21v0zM158 595v0q22 68 138 116v-10q0 -117 -21 -202q-117 24 -117 64v32v0zM434 733v0l-11 -128v-74l-10 -53h-22q11 193 11 244v11h32v0zM476 903v0
q-32 -7 -32 -75h-53q0 64 -21 64h-32q-21 0 -32 -64q-276 -97 -276 -255q0 -140 223 -180q-32 -240 -32 -255h-21l-42 32h-43q-42 -26 -42 -43q0 -91 138 -127q32 -128 64 -128h21l53 11v74h64q0 -117 85 -117h10q43 26 43 43v32l-11 53q255 56 255 180v75q0 137 -255 223
v265q53 0 106 -85q21 0 21 22v63q0 39 -116 85q-24 107 -43 107h-32v0z" />
    <glyph glyph-name="percent" unicode="%" horiz-adv-x="814" 
d="M508 127v0q0 49 117 128q42 -26 42 -43v-42q-82 -43 -127 -43h-32v0zM657 329v0q-159 0 -234 -191q0 -82 96 -96h42q213 48 213 138q0 149 -117 149v0zM221 679v0q33 64 107 96h10v-21q0 -82 -106 -106h-11v31v0zM317 828v0q-170 -58 -170 -159v-43q20 -38 64 -53
q133 0 202 128v74q0 32 -96 53v0zM678 860v0q-404 -436 -648 -797q0 -57 43 -74h53q27 12 244 298q393 506 393 562q0 43 -32 43h-10l-43 -32v0z" />
    <glyph glyph-name="ampersand" unicode="&#x26;" horiz-adv-x="761" 
d="M338 340v0q-8 -136 -21 -149q-15 0 -106 149h127v0zM423 669v0q-32 0 -53 -181h-180q-160 -10 -160 -85v-42q175 -308 276 -308h32q102 0 128 287q167 -22 191 -22q64 32 64 64v11q0 95 -245 95l11 53q-8 128 -43 128h-21v0z" />
    <glyph glyph-name="quotesingle" unicode="'" horiz-adv-x="155" 
d="M51 977v0q-17 0 -21 -21v-213q17 -32 32 -32h21q32 17 32 32v96q-7 138 -42 138h-22v0z" />
    <glyph glyph-name="parenleft" unicode="(" horiz-adv-x="431" 
d="M349 1009v0q-25 0 -96 -43q-223 -260 -223 -510v-106q0 -344 266 -467h32q21 0 21 21v11q-181 223 -181 488v43q0 250 223 520v21q0 18 -21 22h-21v0z" />
    <glyph glyph-name="parenright" unicode=")" horiz-adv-x="484" 
d="M73 1051v0q-43 -16 -43 -32v-32q255 -303 255 -616q0 -238 -202 -477q0 -45 75 -54q211 0 286 500v21q0 189 -106 435q-151 255 -265 255v0z" />
    <glyph glyph-name="asterisk" unicode="*" horiz-adv-x="453" 
d="M200 1019v0q-10 -80 -21 -106l-106 64q-43 -5 -43 -32l106 -117v-10q-42 0 -85 -64q0 -21 22 -21h10q32 0 85 31h11v-74q0 -21 21 -21h43l10 42h22q0 -24 42 -42h11q31 16 31 32v10l-74 117q128 71 128 96q-11 20 -11 32h-21q-32 0 -106 -43h-11v74q-17 32 -32 32h-32v0z
" />
    <glyph glyph-name="plus" unicode="+" horiz-adv-x="580" 
d="M296 510v0q-33 0 -53 -149q-213 -40 -213 -74v-22q9 -32 64 -32h21l128 11v-85q0 -81 42 -96h43q31 9 31 64v128h139q42 26 42 42v43q-17 31 -32 31h-138q-11 139 -42 139h-32v0z" />
    <glyph glyph-name="comma" unicode="," horiz-adv-x="346" 
d="M232 212v0q-38 -155 -202 -382q8 -53 32 -53h53q177 192 191 350q0 66 -53 96l-21 -11v0z" />
    <glyph glyph-name="hyphen" unicode="-" horiz-adv-x="527" 
d="M455 371v0q-209 0 -425 -53v-53q0 -16 43 -32q121 0 371 11q43 26 43 43v42l-32 42v0z" />
    <glyph glyph-name="period" unicode="." horiz-adv-x="251" 
d="M115 148v0q-77 0 -85 -85q0 -47 85 -74q65 0 96 74q0 58 -53 85h-43v0z" />
    <glyph glyph-name="slash" unicode="/" horiz-adv-x="654" 
d="M561 871v0q-138 -124 -180 -234q-351 -467 -351 -542v-10q0 -58 64 -75q96 38 96 96q343 486 424 722q0 43 -31 43h-22v0z" />
    <glyph glyph-name="zero" unicode="0" 
d="M147 276v0q0 100 32 234q74 238 170 286q223 -92 223 -233q0 -27 -21 -117q-140 -340 -298 -340h-42q-64 37 -64 127v43v0zM370 903v0q-340 -165 -340 -659v-11q32 -254 191 -254q95 0 192 63q276 222 276 478v75q0 31 -32 127q-139 181 -276 181h-11v0z" />
    <glyph glyph-name="one" unicode="1" horiz-adv-x="612" 
d="M487 913v0q-115 -5 -276 -149v-10q16 -32 32 -32h21q32 0 159 64q0 -18 -42 -181q-120 -347 -149 -478q-202 -27 -202 -85q21 -48 43 -53h329q170 0 170 85q0 64 -64 64h-117v10q96 330 181 712q-21 35 -21 53h-64v0z" />
    <glyph glyph-name="two" unicode="2" 
d="M455 913v0q-174 0 -308 -149v-10q17 -32 32 -32h11q204 85 286 85h32q36 0 75 -32q0 -82 -117 -223q-384 -384 -436 -478v-53q32 -53 75 -53q288 102 424 106q43 -11 75 -11q31 0 53 43v32q0 85 -96 85t-244 -32q372 402 372 542v31q0 133 -160 149h-74v0z" />
    <glyph glyph-name="three" unicode="3" horiz-adv-x="899" 
d="M455 913v0q-287 -29 -287 -106q16 -43 32 -43q237 32 255 32h43q162 0 233 -95v-22q-67 -94 -255 -159q-286 0 -286 -95q0 -85 95 -85q110 10 170 31q202 -51 202 -95v-21q0 -82 -478 -96h-53q-96 0 -96 -74v-32q0 -37 117 -53h64q595 0 595 265v11q0 93 -139 191
q192 104 192 202q0 208 -330 244h-74v0z" />
    <glyph glyph-name="four" unicode="4" horiz-adv-x="761" 
d="M211 892v0q-181 -335 -181 -489v-21q0 -82 96 -95h53q46 0 297 95l-53 -297q8 -106 64 -106q11 0 32 10q69 0 202 818v21q0 53 -32 64h-43q-50 0 -127 -351q-330 -127 -361 -127h-11l11 64q117 319 117 350v11l-11 53h-53v0z" />
    <glyph glyph-name="five" unicode="5" horiz-adv-x="877" 
d="M625 913v0q-425 0 -425 -127q0 -41 -127 -446v-22q39 -53 53 -53h53q115 128 265 128q234 -48 234 -160v-10q-65 -96 -297 -96h-96q-180 21 -202 21q-53 -38 -53 -53v-21q0 -117 276 -117h149q382 67 382 276v11l-10 64q-132 233 -361 233h-96q-46 0 -85 -21h-10
q40 111 53 244q393 51 393 85v43q-80 21 -96 21v0z" />
    <glyph glyph-name="six" unicode="6" horiz-adv-x="909" 
d="M306 138v0q227 223 393 223h11v-21q-104 -223 -351 -223h-53v21v0zM561 913v0q-71 -32 -85 -32q-446 -358 -446 -584v-74q54 -255 266 -255h106q38 0 96 11q371 139 371 371q-24 170 -138 170h-85q-337 -96 -456 -287l-22 11q0 236 436 627v10q0 16 -43 32v0z" />
    <glyph glyph-name="seven" unicode="7" horiz-adv-x="803" 
d="M583 903v0q-64 0 -64 -11q-489 0 -489 -53q0 -85 160 -85q173 10 339 10h54q-175 -286 -192 -286h-10q-308 0 -330 -43q0 -64 107 -64h180q-148 -314 -148 -382q0 -74 74 -74h11q53 0 63 32q140 360 213 424h170q31 17 31 32v32q-25 43 -42 43h-106v21q159 253 159 297
v11q0 96 -180 96v0z" />
    <glyph glyph-name="eight" unicode="8" horiz-adv-x="803" 
d="M190 212v0q0 101 127 213q212 -164 212 -255q0 -75 -148 -75h-64q-127 30 -127 117v0zM275 690v0q36 128 180 128h64l-234 -181l-10 53v0zM423 934v0q-287 -63 -287 -223q0 -99 54 -170v-10q-160 -179 -160 -298q0 -256 298 -286h42q260 0 297 212v11q0 142 -254 361
l42 42q281 198 308 255v32q-26 43 -42 43h-32q-32 0 -96 -43q0 53 -149 74h-21v0z" />
    <glyph glyph-name="nine" unicode="9" horiz-adv-x="739" 
d="M179 563v0q143 244 319 244h31q0 -23 -74 -212q-120 -149 -244 -149h-11l-32 21l11 96v0zM434 913v0q-46 0 -85 -21q-319 -149 -319 -404q32 -180 160 -180h53q54 0 138 42q-43 -178 -53 -287q0 -94 42 -138h21q87 0 181 553q114 152 127 276q0 95 -106 95
q-39 64 -117 64h-42v0z" />
    <glyph glyph-name="colon" unicode=":" horiz-adv-x="261" 
d="M105 318v0q-75 -36 -75 -95q0 -58 85 -85q64 0 96 64v31q0 58 -53 85h-53v0zM147 828v0q-85 0 -85 -85v-10q39 -54 53 -54h21q64 0 85 64q-8 85 -74 85v0z" />
    <glyph glyph-name="semicolon" unicode=";" horiz-adv-x="325" 
d="M179 340v0q-24 -125 -149 -234v-32q17 -32 32 -32h11q134 0 170 266q-17 32 -32 32h-32v0zM200 839v0q-63 0 -85 -64q0 -85 85 -85q58 0 85 53v43q-39 53 -53 53h-32v0z" />
    <glyph glyph-name="less" unicode="&#x3c;" horiz-adv-x="623" 
d="M529 541v0q-499 -180 -499 -265q0 -115 489 -223h10q54 39 54 53v53q0 43 -308 117v21q229 104 286 181v53q-11 0 -32 10v0z" />
    <glyph glyph-name="equal" unicode="=" 
d="M646 244v0q-573 -11 -573 -53v-21q0 -53 233 -53h287q81 0 96 42v53q0 16 -43 32v0zM487 414v0q-457 0 -457 -85q0 -35 53 -53q222 11 361 11h128q57 0 74 42v42q0 36 -159 43v0z" />
    <glyph glyph-name="greater" unicode="&#x3e;" horiz-adv-x="750" 
d="M94 541v0q-43 0 -64 -42v-21q0 -62 372 -170v-21q-276 -89 -276 -170q10 -85 74 -85q510 186 510 297q0 36 -32 74q-97 0 -584 138v0z" />
    <glyph glyph-name="question" unicode="?" horiz-adv-x="644" 
d="M275 138v0q-64 0 -96 -96q0 -82 96 -95h10q88 0 106 95v32q-33 64 -116 64v0zM349 913v0q-207 0 -319 -159v-32q17 -32 32 -32h21q133 106 245 106q159 0 159 -117q-19 -56 -53 -95q-340 -121 -340 -234q37 -191 138 -191h11q53 39 53 53v43q-41 74 -53 74l10 21
q351 141 351 319v21q-37 223 -255 223v0z" />
    <glyph glyph-name="at" unicode="@" horiz-adv-x="962" 
d="M306 318v0q0 97 170 149v-85q-111 -64 -170 -64v0zM572 733v0q-69 0 -149 -22q-393 -131 -393 -456q0 -287 329 -287q244 0 319 117v21l-11 21q-155 -42 -297 -42h-21q-202 0 -202 148v22q0 300 436 371q182 0 223 -159v-21q0 -106 -181 -159l-32 53l11 148
q-11 43 -64 43h-11q-18 0 -21 -21q-18 0 -53 21q-189 0 -244 -223q28 -85 85 -85q87 0 202 64q31 -107 116 -107h32q276 75 276 266q0 247 -318 287h-32v0z" />
    <glyph glyph-name="A" unicode="A" horiz-adv-x="782" 
d="M264 446v0q175 297 287 297q50 0 74 -244q-36 -11 -340 -53h-21v0zM529 860v0q-113 0 -254 -170q-226 -371 -245 -637q0 -43 43 -64q32 0 32 43q56 230 127 318h74q61 0 308 21h11v-339q17 -32 32 -32h10q75 0 75 308v202q0 350 -170 350h-43v0z" />
    <glyph glyph-name="B" unicode="B" horiz-adv-x="792" 
d="M190 393v0q53 -43 63 -43l75 11q275 -11 308 -74v-11q0 -86 -478 -170h-11q0 74 43 287v0zM253 743v0q0 43 149 43q145 0 170 -96q0 -105 -213 -191q-123 -39 -159 -74l53 318v0zM402 871v0q-189 -22 -212 -43q-60 0 -160 -754q0 -42 43 -42q37 -53 95 -53l64 10
q520 85 520 298q0 123 -265 159q170 110 170 223v32q0 144 -255 170v0z" />
    <glyph glyph-name="C" unicode="C" horiz-adv-x="739" 
d="M583 871v0q-100 0 -213 -53q-340 -169 -340 -425q0 -338 446 -404h85q122 0 138 106v22q0 16 -42 31l-128 -10q-339 46 -339 223v53q0 52 31 106q188 266 372 266h32l53 -32q21 0 21 21v11q-10 85 -95 85h-21v0z" />
    <glyph glyph-name="D" unicode="D" horiz-adv-x="877" 
d="M296 743v0q41 -10 85 -10q308 -35 308 -223v-43q0 -48 -85 -159q-196 -158 -436 -191h-10q138 583 138 626v0zM444 849v0q-189 0 -223 -31q-191 -586 -191 -776v-42l21 -32q27 0 85 11q56 -11 64 -11q103 21 117 21q520 185 520 478q0 321 -393 382v0z" />
    <glyph glyph-name="E" unicode="E" horiz-adv-x="739" 
d="M253 839v0q0 10 -21 10q-106 -21 -106 -42v-32q11 0 32 -11q-128 -391 -128 -573v-64q0 -135 160 -159h31q478 90 478 170v32q-26 42 -42 42h-21q-386 -95 -425 -95l-21 10q0 73 31 276q160 11 234 11h43q82 0 106 53v11q-17 42 -75 42h-170l-106 -10q43 211 43 244h95
q298 0 298 53v11l-32 42l-404 -21v0z" />
    <glyph glyph-name="F" unicode="F" horiz-adv-x="707" 
d="M636 849v0q-164 0 -361 -31q0 17 -22 21h-21q-74 -41 -74 -53v-32q0 -21 21 -21l-149 -670q32 -63 64 -63q91 0 138 382h276q43 26 43 43v53q-17 32 -32 32h-53q-117 0 -202 -22h-11q0 33 22 213q392 0 392 74q0 36 -31 74v0z" />
    <glyph glyph-name="G" unicode="G" horiz-adv-x="899" 
d="M593 860v0q-70 0 -170 -32q-393 -198 -393 -499q0 -60 21 -117q103 -202 372 -202q320 0 436 181v74q0 128 -170 128q-43 0 -43 -11q-340 0 -340 -85q0 -57 43 -74h21q27 0 340 21h11v-21q-176 -75 -298 -75q-215 0 -255 149v32q0 98 64 202q177 233 382 233v-21h32
l43 32q0 85 -96 85v0z" />
    <glyph glyph-name="H" unicode="H" horiz-adv-x="803" 
d="M243 839v0q-213 -636 -213 -786q21 -49 43 -53h42q57 0 106 308q0 26 287 42h11q-64 -274 -64 -308q20 -38 64 -53l53 21q85 204 191 754q0 68 -32 75h-42q-28 0 -128 -329l-297 -64h-11q75 242 75 340q0 53 -32 63h-32l-21 -10v0z" />
    <glyph glyph-name="I" unicode="I" horiz-adv-x="336" 
d="M253 839v0q-27 0 -53 -32q-170 -645 -170 -754v-21q26 -43 43 -43h53q57 0 170 733v42q0 38 -43 75v0z" />
    <glyph glyph-name="J" unicode="J" horiz-adv-x="877" 
d="M806 849v0q-355 -21 -404 -31q-297 0 -297 -54q0 -63 159 -63q53 0 159 10v-21q-16 -542 -106 -542h-74q-26 0 -138 32q-75 -19 -75 -74v-11q32 -116 223 -116h43q265 0 265 541v181q0 18 22 21h106q148 7 148 53v64q-11 0 -31 10v0z" />
    <glyph glyph-name="K" unicode="K" horiz-adv-x="750" 
d="M275 881v0q-24 0 -43 -10q-202 -628 -202 -808v-21q17 -32 32 -32h43q44 0 74 192v10q168 -64 191 -64q147 -67 266 -138q57 0 74 43v32q0 109 -446 244q247 343 319 457v42q0 18 -22 21h-21q-48 -22 -297 -329q53 265 53 319v10l-21 32v0z" />
    <glyph glyph-name="L" unicode="L" horiz-adv-x="601" 
d="M200 849v0l-170 -743q0 -72 106 -96h11q22 0 202 22h127q58 0 85 53v63q-27 54 -85 54h-127q-90 0 -138 -22q74 422 74 595v43l-10 53h-43l-32 -22v0z" />
    <glyph glyph-name="M" unicode="M" horiz-adv-x="803" 
d="M604 881v0q-126 -118 -170 -297h-11v21q-24 255 -127 255h-21q-13 0 -64 -64q-168 -413 -181 -679q0 -84 43 -138l42 10q85 427 160 637h10q8 -159 21 -159q0 -425 75 -425q40 0 85 43q42 373 148 605h11v-170q0 -44 -21 -425v-63q0 -75 74 -75h11q53 27 53 85v64
q0 44 21 425v170q0 180 -127 180h-32v0z" />
    <glyph glyph-name="N" unicode="N" horiz-adv-x="761" 
d="M625 881v0q-66 0 -170 -520h-11q-61 488 -148 488q-32 0 -85 -31q-181 -596 -181 -786q16 -43 32 -43h32q21 0 21 21q138 553 160 553q0 -107 21 -107q38 -477 148 -477q24 0 96 63q74 433 181 754q0 85 -85 85h-11v0z" />
    <glyph glyph-name="O" unicode="O" horiz-adv-x="782" 
d="M126 329v0q123 425 340 425h32q127 -23 127 -159v-75q0 -49 -21 -170q-132 -265 -308 -265h-53l-64 53q0 53 -53 53v138v0zM444 860v0q-39 0 -138 -42q-276 -233 -276 -500v-85q49 -297 234 -297h11q53 0 127 21q340 145 340 563q0 7 -11 138q-73 202 -212 202h-75v0z
" />
    <glyph glyph-name="P" unicode="P" horiz-adv-x="782" 
d="M359 775v0h54q233 -52 233 -117v-10q0 -149 -393 -202q32 166 32 255v63l74 11v0zM370 860v0q-187 0 -234 -74v-32q0 -21 43 -21q-149 -644 -149 -691v-10q20 -39 64 -53q99 0 127 308q0 31 85 31q436 111 436 319q0 188 -340 223h-32v0z" />
    <glyph glyph-name="Q" unicode="Q" horiz-adv-x="835" 
d="M147 287v0q11 110 43 191q182 308 329 308h53l21 -11q0 -11 -10 -32q84 -182 84 -233v-43q0 -116 -138 -202q0 16 -95 85h-32q-16 0 -32 -42q27 -106 53 -106q-90 -64 -170 -64q-106 0 -106 149v0zM529 871v0q-110 0 -212 -75q-287 -222 -287 -520q28 -255 202 -255h21
q104 0 245 74q10 0 127 -95q74 40 74 74q0 40 -74 96q170 168 170 297q-35 329 -159 329q-34 75 -96 75h-11v0z" />
    <glyph glyph-name="R" unicode="R" horiz-adv-x="771" 
d="M275 467v0q42 167 42 191q0 106 127 106q134 0 170 -85q0 -33 -53 -84q-178 -128 -265 -128h-21v0zM466 871v0q-30 0 -149 -32l-21 10l-32 -21q-96 -277 -234 -775q0 -57 43 -74h53q32 0 117 318q62 0 201 -95q98 -178 128 -192h32q74 0 74 64v11q-70 200 -223 286
q276 170 276 287v11q0 171 -265 202v0z" />
    <glyph glyph-name="S" unicode="S" horiz-adv-x="792" 
d="M551 860v0q-446 -32 -446 -212v-43q0 -132 318 -223q152 -52 202 -149v-21q0 -42 -191 -42h-53q-160 0 -276 42q-75 -19 -75 -74q0 -128 319 -128h95q308 27 308 192q0 141 -201 265q-330 111 -330 149q0 102 340 148q56 -10 64 -10q32 16 32 32v21q-32 53 -106 53v0z
" />
    <glyph glyph-name="T" unicode="T" horiz-adv-x="814" 
d="M731 849v0q-701 0 -701 -85v-31q0 -34 117 -54q56 11 106 11h43q-96 -564 -96 -648q5 -22 53 -42q24 0 43 10q49 0 106 404q16 287 42 287h192q138 0 138 63q0 41 -43 85v0z" />
    <glyph glyph-name="U" unicode="U" horiz-adv-x="792" 
d="M646 871v0q-42 -26 -42 -43v-170q-132 -541 -308 -541h-53q-51 0 -75 233q0 130 53 478q0 18 -21 21h-32q-138 -164 -138 -499v-42q26 -340 223 -340h43q58 0 180 64q276 343 276 647v107q0 57 -53 85h-53v0z" />
    <glyph glyph-name="V" unicode="V" horiz-adv-x="676" 
d="M561 881v0q-85 0 -85 -106q-237 -541 -276 -584q-19 680 -117 680h-21l-32 -22q11 -279 11 -329q0 -552 127 -552q66 0 117 32q351 695 351 796q-16 85 -75 85v0z" />
    <glyph glyph-name="W" unicode="W" horiz-adv-x="814" 
d="M710 903v0q-57 0 -74 -43v-74q0 -169 -149 -616q-18 0 -21 21v138q0 201 63 478q0 63 -63 85q-36 0 -75 -53q-98 -691 -233 -691l-11 54q0 258 96 626q-17 32 -32 32h-21l-22 -11q-131 -335 -138 -637q22 -180 138 -180h11q149 48 149 116h21q17 -148 117 -148h42l75 63
q191 524 191 701v54q0 57 -53 85h-11v0z" />
    <glyph glyph-name="X" unicode="X" horiz-adv-x="899" 
d="M275 892v0q-47 0 -64 -53q0 -41 127 -393v-11q-269 -282 -308 -372q32 -63 64 -63h32q56 0 276 287l21 -11q93 -308 160 -308q106 0 106 74q-53 189 -149 383q188 198 319 393v21l-22 32q-75 0 -361 -298h-10q-107 319 -191 319v0z" />
    <glyph glyph-name="Y" unicode="Y" horiz-adv-x="761" 
d="M636 892v0q-46 -21 -64 -21q-78 -200 -244 -404l-53 32q-127 325 -170 329q-75 0 -75 -74q0 -238 202 -404l-11 -74v-170q0 -106 96 -127q55 0 85 53v31q0 91 -11 287q45 0 117 85q196 262 213 361v11q0 69 -85 85v0z" />
    <glyph glyph-name="Z" unicode="Z" horiz-adv-x="824" 
d="M721 860v0q-324 -32 -542 -32q-53 0 -64 -42q0 -64 319 -64q47 0 138 11v-11l-467 -542q-42 -88 -75 -117v-42q9 -32 64 -32q390 43 478 43h127q64 0 85 74q0 96 -138 96q-289 -22 -371 -54v11l382 467q21 70 117 149v11q0 59 -53 74v0z" />
    <glyph glyph-name="bracketleft" unicode="[" horiz-adv-x="527" 
d="M243 913v0h-117q-75 0 -75 -64l11 -53q-32 -276 -32 -435v-287q0 -77 75 -95q18 10 42 10h266q59 0 74 53q0 60 -53 75q-90 -11 -149 -11h-117q-10 196 -10 287q0 123 10 393h245q42 26 42 42v43q0 42 -149 53l-63 -11v0z" />
    <glyph glyph-name="backslash" unicode="\" horiz-adv-x="559" 
d="M30 871v0q12 -127 138 -351q226 -520 266 -520h42q22 4 43 53q-392 839 -457 839l-32 -21v0z" />
    <glyph glyph-name="bracketright" unicode="]" horiz-adv-x="644" 
d="M147 913v0q-63 0 -85 -64q0 -85 382 -85h11l-21 -562q10 -38 10 -107h-85q-329 0 -329 -53v-32q0 -36 117 -53h297q160 47 160 106q-11 91 -11 149v32q0 365 -21 542q0 97 -128 127h-297v0z" />
    <glyph glyph-name="underscore" unicode="_" horiz-adv-x="559" 
d="M476 63v0q-104 -10 -435 -21l-11 -21v-21q7 -32 85 -32h266q138 0 138 32v32q0 16 -43 31v0z" />
    <glyph glyph-name="grave" unicode="`" horiz-adv-x="301" 
d="M115 687v0q-17 18 -27 24q-11 6 -21 6q-16 0 -26 -10q-11 -10 -11 -26q0 -11 8 -21t23 -20l165 -101h35l-146 148v0z" />
    <glyph glyph-name="a" unicode="a" horiz-adv-x="591" 
d="M147 180v0q0 212 234 276h53q-32 -25 -32 -138q-120 -191 -234 -191q-18 0 -21 21v32v0zM349 541v0q-319 -82 -319 -361q13 -159 117 -159h43q79 0 201 96h11q0 -93 64 -128h42l43 32q0 16 -11 170q0 51 11 244q-26 43 -43 43h-10l-54 -11q0 11 11 11q0 63 -74 63h-32v0z
" />
    <glyph glyph-name="b" unicode="b" horiz-adv-x="676" 
d="M168 138v0q0 329 181 329h42q107 0 138 -96q0 -151 -350 -233h-11v0zM221 881v0q-42 0 -74 -244q-96 -406 -117 -552q0 -65 149 -85h42q415 151 415 340q0 233 -255 233q-87 0 -138 -32h-11q32 186 32 287v11l-32 42h-11v0z" />
    <glyph glyph-name="c" unicode="c" horiz-adv-x="548" 
d="M317 541v0q-287 -161 -287 -361q0 -170 181 -170h10q287 34 287 128v10q0 16 -42 32l-245 -53q-68 0 -74 32v32q107 276 276 276q41 -11 85 -11v43q0 37 -117 53l-74 -11v0z" />
    <glyph glyph-name="d" unicode="d" 
d="M604 956v0q-56 0 -106 -521q-150 -350 -340 -350q-32 16 -32 32v53q0 123 149 223q212 41 212 74v11q0 25 -64 32h-64q-329 -77 -329 -362q15 -148 128 -148h21q117 0 276 159q0 -127 43 -127h31l32 21l128 860q0 43 -32 43h-53v0z" />
    <glyph glyph-name="e" unicode="e" horiz-adv-x="697" 
d="M232 308v0q142 159 234 159h32l53 -11v-21q-153 -74 -308 -127h-11v0zM476 573v0q-38 0 -95 -10q-351 -200 -351 -404v-11q0 -145 160 -159h106q329 57 329 181q-8 53 -32 53h-32q-183 -117 -350 -117q-23 0 -64 32q0 8 11 64q499 112 499 244v42q-49 85 -159 85h-22v0z
" />
    <glyph glyph-name="f" unicode="f" horiz-adv-x="707" 
d="M551 924v0q-237 0 -298 -510q-223 -22 -223 -85q0 -64 181 -64q-32 -86 -32 -159v-43q25 -53 64 -53q88 0 138 266q286 0 286 85q0 40 -42 85q-36 0 -212 -21q49 371 148 371l22 -53h31q43 26 43 43v63q-34 75 -96 75h-10v0z" />
    <glyph glyph-name="g" unicode="g" horiz-adv-x="718" 
d="M211 170v0q131 255 255 255h32q0 -54 42 -54q0 -142 -319 -223h-10v22v0zM476 520v0q-110 0 -212 -85q-170 -177 -170 -287q0 -102 117 -116q118 0 287 95q0 -85 -11 -117q-83 -212 -308 -212q-23 11 -96 21q-53 -27 -53 -42v-64q42 -74 149 -74q301 0 425 265
q32 163 74 510v11q-5 21 -53 42q-23 0 -64 -32q0 70 -85 85v0z" />
    <glyph glyph-name="h" unicode="h" horiz-adv-x="644" 
d="M221 881v0q-191 -686 -191 -839q18 -42 75 -42h10l53 42q22 99 53 138q138 202 234 202h11q-43 -225 -53 -350q0 -72 85 -85l42 21q28 43 64 414q-13 149 -117 149q-91 0 -244 -106q53 339 53 382q0 57 -43 74h-32v0z" />
    <glyph glyph-name="i" unicode="i" horiz-adv-x="336" 
d="M168 531v0q-82 -62 -138 -499v-11q17 -32 32 -32h53q43 0 106 467q-17 75 -53 75v0zM211 754v0q-53 -39 -53 -53v-43q17 -42 74 -42h11q53 21 53 74v11q-39 53 -53 53h-32v0z" />
    <glyph glyph-name="j" unicode="j" horiz-adv-x="633" 
d="M487 510v0q-17 0 -43 -64q-79 -616 -223 -616q-29 0 -95 64h-43q-25 0 -53 -85q0 -120 181 -149q101 0 223 117q117 285 117 605q0 128 -43 128h-21v0zM487 754v0q-21 0 -43 -75q8 -84 75 -84q74 0 74 74v10q0 75 -74 75h-32v0z" />
    <glyph glyph-name="k" unicode="k" horiz-adv-x="623" 
d="M211 903v0q-181 -721 -181 -840v-31q26 -43 43 -43h10q85 0 85 170l351 -117h21q43 26 43 43v10q0 57 -96 107q-215 41 -223 74q2 13 223 223v21q-17 32 -32 32h-21q-53 0 -213 -138q54 325 54 435l-11 54h-53v0z" />
    <glyph glyph-name="l" unicode="l" horiz-adv-x="357" 
d="M243 903v0q-213 -728 -213 -818v-22q26 -42 43 -42h53l32 21q159 644 159 829v21q0 16 -42 32l-32 -21v0z" />
    <glyph glyph-name="m" unicode="m" horiz-adv-x="792" 
d="M200 605v0q-93 -125 -170 -542q0 -42 43 -53q42 0 53 64q74 288 233 425h22q32 -90 32 -117q-85 -210 -85 -244q0 -43 42 -64q64 0 96 117q53 213 170 276h10v-53q0 -96 -95 -361l32 -43q131 0 169 404q0 159 -106 159h-10q-49 0 -149 -95q0 83 -117 117q-67 0 -138 -96
h-11l11 21v64q0 18 -21 21h-11v0z" />
    <glyph glyph-name="n" unicode="n" horiz-adv-x="665" 
d="M179 573v0q-149 -495 -149 -531q35 -63 53 -63h32q36 0 64 148q107 298 265 298q54 -25 54 -54v-10q-64 -246 -64 -287v-11q26 -42 42 -42h43q56 0 106 340v10q0 152 -191 181q-70 0 -181 -74q0 106 -21 106h-32l-21 -11v0z" />
    <glyph glyph-name="o" unicode="o" 
d="M136 212v0q0 190 255 255q146 -93 181 -149v-42q-128 -191 -329 -191h-22q-85 0 -85 85v42v0zM306 541v0q-276 -100 -276 -361q0 -183 202 -201q90 0 138 21q319 131 319 287q0 81 -64 159q-87 74 -244 95h-75v0z" />
    <glyph glyph-name="p" unicode="p" horiz-adv-x="707" 
d="M253 159v0q123 329 234 329q64 -42 64 -95v-11q0 -145 -287 -223h-11v0zM487 605v0q-83 -9 -170 -85l-11 53h-53l-32 -191q-191 -358 -191 -616q0 -31 43 -53h32l21 11l85 329l53 -32h95q308 158 308 319v85q0 125 -180 180v0z" />
    <glyph glyph-name="q" unicode="q" horiz-adv-x="612" 
d="M158 180v0q0 36 10 53q111 202 223 202h22q-22 -45 -22 -64q0 -155 -223 -223h-10v32v0zM328 520v0q-298 -122 -298 -350q28 -149 128 -149q54 0 159 53h11q0 -46 -85 -382q21 -75 85 -75h31q77 0 139 521l74 244v74q0 58 -43 75q-43 0 -85 -11l-42 11l-74 -11v0z" />
    <glyph glyph-name="r" unicode="r" horiz-adv-x="623" 
d="M455 563v0q-112 0 -212 -107q-7 96 -32 96h-21l-32 -21q-128 -428 -128 -499v-22q26 -42 43 -42h42q33 0 75 127q156 319 254 319l64 -11q61 0 75 85q0 64 -128 75v0z" />
    <glyph glyph-name="s" unicode="s" horiz-adv-x="665" 
d="M391 573v0q-159 0 -233 -106v-32q0 -29 21 -64q245 -103 329 -159v-21q0 -32 -117 -32h-63q-107 0 -213 43q-63 0 -85 -64q0 -115 213 -128h116q266 28 266 192q0 125 -329 233v11q120 32 191 32h53q21 0 21 21v32q0 29 -106 42h-64v0z" />
    <glyph glyph-name="t" unicode="t" horiz-adv-x="601" 
d="M328 818v0q-35 0 -96 -245q-202 -17 -202 -53v-10q18 -43 75 -43h85l-64 -372q0 -38 64 -63l63 31q57 404 85 404h149q53 0 74 53v32l-32 43l-127 -11h-43q22 121 22 170v32q-17 32 -32 32h-21v0z" />
    <glyph glyph-name="u" unicode="u" horiz-adv-x="623" 
d="M158 552v0q-128 -186 -128 -372q25 -170 138 -170h11q101 0 255 170q13 -159 74 -159q60 0 75 53q-11 90 -11 149v74q0 69 11 213l-43 31h-42q-54 -26 -54 -95q-130 -286 -276 -329q-17 25 -32 85l85 318v11q0 18 -21 21h-42v0z" />
    <glyph glyph-name="v" unicode="v" horiz-adv-x="612" 
d="M498 605v0q-21 0 -64 -21q-18 -86 -223 -340q-60 340 -96 340h-42q-25 0 -43 -96q11 -156 43 -265q30 -202 117 -202h42l21 11q319 405 319 499q-16 55 -74 74v0z" />
    <glyph glyph-name="w" unicode="w" horiz-adv-x="803" 
d="M413 626v0q-27 -5 -64 -127q-102 -329 -223 -329v10q0 138 42 383q-7 32 -42 42q-61 0 -96 -372v-85q0 -81 96 -95q75 0 191 106q0 -96 127 -127h32q51 0 128 74q159 227 159 414q0 42 -74 64l-64 -32q-88 -382 -170 -382l-11 21v64l64 329v11q-16 31 -32 31h-63v0z" />
    <glyph glyph-name="x" unicode="x" horiz-adv-x="601" 
d="M179 605v0q-43 -26 -43 -42v-53q0 -71 85 -213v-10q-191 -213 -191 -255v-22q26 -42 43 -42h42q31 0 181 170q61 -128 117 -128q74 20 74 75v21q-96 119 -96 159v11q170 202 170 255v21q0 18 -21 21h-42l-181 -170h-11q-89 202 -106 202h-21v0z" />
    <glyph glyph-name="y" unicode="y" horiz-adv-x="569" 
d="M115 584v0q-17 0 -42 -74q53 -424 85 -457q-121 -238 -128 -319q0 -42 53 -74h53q51 13 107 223q286 542 286 616v21q-16 32 -31 32h-32q-20 0 -213 -308v11q-35 257 -106 329h-32v0z" />
    <glyph glyph-name="z" unicode="z" horiz-adv-x="782" 
d="M519 552v0q-446 0 -446 -74q0 -53 95 -53h255l-42 -43q-334 -197 -351 -297v-32q26 -43 43 -43h74q329 75 425 75h11l21 10q0 -10 10 -10h75q53 39 53 53v42q-55 75 -117 75l-202 -22h-10v11q80 12 244 212v11q0 85 -138 85v0z" />
    <glyph glyph-name="braceleft" unicode="{" horiz-adv-x="623" 
d="M455 945v0q-144 0 -170 -181v-21q74 -139 74 -159q0 -44 -53 -85q-266 -117 -276 -170q0 -42 53 -74h192v-11q-54 -73 -54 -138v-43q0 -134 287 -180q66 21 75 53v32l-22 32q-212 54 -212 85v21q95 145 95 170q0 95 -138 95q149 110 149 192v32q0 50 -74 169
q0 83 117 128q0 42 -43 53v0z" />
    <glyph glyph-name="bar" unicode="|" horiz-adv-x="219" 
d="M83 786v0q-34 0 -42 -138v-277q0 -111 -11 -339l43 -32h21q85 0 85 170v170q0 446 -64 446h-32v0z" />
    <glyph glyph-name="braceright" unicode="}" horiz-adv-x="580" 
d="M243 924v0q-107 0 -170 -53v-22l21 -31q110 10 127 10q158 0 202 -95v-11q-202 -99 -202 -170q0 -85 107 -106v-11l-22 -32v-53q113 -96 117 -148q0 -34 -95 -75q-298 -41 -298 -85v-32q0 -17 75 -42q363 0 424 212v53q0 59 -95 160q74 0 74 74v11l-10 21
q-138 49 -139 64h11q170 92 170 170q-38 171 -297 191v0z" />
    <glyph glyph-name="asciitilde" unicode="~" horiz-adv-x="1058" 
d="M349 488v0q-45 0 -117 -32q-202 -146 -202 -308q0 -57 43 -74h32q125 276 244 276h10q41 0 85 -42q94 -298 223 -298q61 0 75 11q276 104 276 287v53q-26 42 -43 42h-53q-31 -16 -31 -32q-87 -212 -213 -212l-21 11q-107 318 -255 318h-53v0z" />
    <glyph glyph-name="cent" unicode="&#xa2;" horiz-adv-x="527" 
d="M115 265v0q38 123 117 170h11q-11 -125 -11 -180v-75h-11q-77 0 -106 85v0zM275 626v0q-32 -6 -32 -85q-213 -126 -213 -276q0 -129 191 -180v-85q0 -79 32 -85h43q21 0 21 21v117q170 14 170 74q0 17 -21 43q-105 -22 -117 -22q-18 0 -21 22v297l42 -32q21 0 21 21v32
q-22 43 -53 43q-20 95 -42 95h-21v0z" />
    <glyph glyph-name="sterling" unicode="&#xa3;" horiz-adv-x="899" 
d="M572 903v0q-209 0 -266 -170v-64q96 -215 96 -255v-21h-21q-266 0 -266 -64q16 -53 138 -53h128q-34 -52 -117 -106q-234 -58 -234 -149q0 -85 96 -85q178 21 435 32q298 0 298 53v21q0 60 -53 75l-393 -22h-11q79 96 85 96q32 96 53 96h181q21 4 42 53q0 59 -53 74
q-133 -11 -149 -11h-21q-18 110 -117 287q0 96 223 128q96 -14 160 -64q21 0 21 21q0 128 -202 128h-53v0z" />
    <glyph glyph-name="dieresis" unicode="&#xa8;" horiz-adv-x="361" 
d="M220 644v0q-7 -6 -7 -13q0 -5 4 -11l38 -43q6 -6 13 -6q4 0 12 8l35 38q6 7 6 13t-5 13l-35 37q-8 6 -13 6q-6 0 -13 -6l-35 -36v0zM37 644v0q-7 -6 -7 -13q0 -5 5 -11l38 -43q5 -6 12 -6q4 0 13 8l34 38q6 7 6 13t-5 13l-34 36q-8 7 -14 7t-12 -6l-36 -36v0z" />
    <glyph glyph-name="copyright" unicode="&#xa9;" horiz-adv-x="559" 
d="M275 796v0q-88 0 -117 -127q0 -60 148 -74q75 18 75 42q-17 32 -32 32h-117v32l32 42l64 -10q21 0 21 21q-17 42 -74 42v0zM94 648v0q0 176 255 212q68 -72 95 -170q0 -117 -223 -117h-53q-57 0 -74 43v32v0zM285 903v0q-189 0 -255 -255q0 -138 149 -138h21
q319 0 319 169q-9 96 -32 96q0 85 -202 128v0z" />
    <glyph glyph-name="registered" unicode="&#xae;" horiz-adv-x="761" 
d="M381 265v0l74 -10v-22q-32 0 -85 -31v63h11v0zM105 159v0q0 141 350 202q32 0 74 -11q128 -87 128 -202q0 -85 -106 -116q0 11 10 31q0 50 -138 85v11q117 39 117 85q-35 85 -149 85h-10q-82 0 -96 -42v-11q0 -21 21 -21q0 -22 -21 -149l11 -43h42l11 43q170 -64 170 -85
q-414 0 -414 85v53v0zM423 414v0q-393 -74 -393 -276q0 -181 436 -181q255 26 255 170v75q-104 212 -245 212h-53v0z" />
    <glyph glyph-name="plusminus" unicode="&#xb1;" horiz-adv-x="739" 
d="M667 138v0q-637 -5 -637 -64v-21q9 -32 64 -32h563q42 26 42 42v32l-32 43v0zM359 552v0q-53 -21 -53 -117q-201 -17 -201 -53v-21q0 -16 42 -32q90 11 149 11v-53l-11 -64q0 -64 74 -64h11q53 24 53 106v64h106l75 -11q53 28 53 43v42l-21 32l-128 -10h-74
q-21 127 -53 127h-22v0z" />
    <glyph glyph-name="acute" unicode="&#xb4;" horiz-adv-x="301" 
d="M30 539v0h35l165 101q15 10 23 20t8 21q0 16 -10 26q-11 10 -27 10q-10 0 -20 -6q-11 -6 -28 -24l-146 -148v0z" />
    <glyph glyph-name="periodcentered" unicode="&#xb7;" horiz-adv-x="261" 
d="M126 191v0q-96 0 -96 -85v-53q39 -53 53 -53h85q53 27 53 85v42q-37 64 -95 64v0z" />
    <glyph glyph-name="cedilla" unicode="&#xb8;" horiz-adv-x="274" 
d="M30 -193v0q40 -16 95 -16q51 0 80 22t29 60q0 37 -24 57t-67 20q-15 0 -31 -2l19 52h-32l-24 -88q9 1 17 1q31 0 51 -8q25 -10 25 -32q0 -23 -14 -34q-15 -10 -48 -10t-76 26v-48v0z" />
    <glyph glyph-name="circumflex" unicode="&#x2c6;" horiz-adv-x="361" 
d="M59 539v0l117 108l116 -108h29l-116 178h-59l-116 -178h29v0z" />
    <glyph glyph-name="caron" unicode="&#x2c7;" horiz-adv-x="361" 
d="M146 539v0h59l116 178h-29l-116 -107l-117 107h-29l116 -178v0z" />
    <glyph glyph-name="breve" unicode="&#x2d8;" horiz-adv-x="362" 
d="M30 674v0q11 -66 48 -100q38 -35 99 -35t98 34q37 35 47 101h-25q-9 -37 -37 -54q-29 -16 -83 -16q-55 0 -84 17t-37 53h-26v0z" />
    <glyph glyph-name="dotaccent" unicode="&#x2d9;" horiz-adv-x="178" 
d="M37 644v0q-4 -3 -5 -7q-2 -3 -2 -6q0 -4 1 -7q1 -2 3 -4l38 -44q2 -3 5 -4t8 -1q2 0 4 1t8 7l35 38q3 3 4 6t2 7q0 4 -1 7t-4 5l-35 38q-3 3 -6 5q-4 1 -7 1t-7 -1q-3 -2 -6 -5l-35 -36v0z" />
    <glyph glyph-name="ring" unicode="&#x2da;" horiz-adv-x="248" 
d="M30 628v0q0 -37 26 -63q25 -26 62 -26q38 0 64 26t26 63t-26 63t-64 26q-37 0 -62 -26q-26 -25 -26 -63v0zM68 628v0q0 20 15 35t35 15q21 0 36 -15q14 -15 14 -35q0 -21 -14 -35q-15 -15 -36 -15t-35 15q-15 14 -15 35v0z" />
    <glyph glyph-name="ogonek" unicode="&#x2db;" horiz-adv-x="254" 
d="M141 0v0q-50 -28 -80 -68q-31 -40 -31 -78q0 -28 22 -46q22 -17 57 -17q33 0 60 17t45 48l-14 8q-10 -16 -24 -24q-15 -8 -35 -8q-23 0 -37 14q-13 14 -13 38q0 27 20 56q19 29 55 60h-25v0z" />
    <glyph glyph-name="tilde" unicode="&#x2dc;" horiz-adv-x="357" 
d="M290 691v0q-7 -23 -18 -33t-29 -10h-2q-24 0 -56 11q-33 12 -56 12q-40 0 -65 -26q-24 -26 -34 -79h27q6 25 17 35q11 11 30 11q24 0 57 -12q32 -12 57 -12h2q39 0 63 26q24 25 34 77h-27v0z" />
    <glyph glyph-name="hungarumlaut" unicode="&#x2dd;" horiz-adv-x="365" 
d="M202 539v0l102 106q10 11 16 21q5 9 5 17q0 14 -10 24t-24 10q-13 0 -23 -10q-11 -9 -23 -31l-72 -137h29v0zM59 539v0l103 106q10 11 15 21q5 9 5 17q0 14 -10 24t-24 10q-12 0 -23 -10q-11 -9 -23 -31l-72 -137h29v0z" />
    <glyph glyph-name="quoteleft" unicode="&#x2018;" horiz-adv-x="346" 
d="M105 503v0q38 155 201 382q-7 53 -31 53h-53q-178 -192 -192 -350q0 -66 53 -96l22 11v0z" />
    <glyph glyph-name="quoteright" unicode="&#x2019;" horiz-adv-x="346" 
d="M232 928v0q-38 -155 -202 -383q8 -53 32 -53h53q177 192 191 351q0 66 -53 95l-21 -10v0z" />
    <glyph glyph-name="quotedblleft" unicode="&#x201c;" horiz-adv-x="733" 
d="M491 503v0q38 155 202 382q-8 53 -32 53h-53q-177 -192 -191 -350q0 -66 53 -96l21 11v0zM105 503v0q38 155 201 382q-7 53 -31 53h-53q-178 -192 -192 -350q0 -66 53 -96l22 11v0z" />
    <glyph glyph-name="quotedblright" unicode="&#x201d;" horiz-adv-x="733" 
d="M618 928v0q-38 -155 -201 -383q7 -53 31 -53h53q178 192 192 351q0 66 -53 95l-22 -10v0zM232 928v0q-38 -155 -202 -383q8 -53 32 -53h53q177 192 191 351q0 66 -53 95l-21 -10v0z" />
    <glyph glyph-name="bullet" unicode="&#x2022;" horiz-adv-x="261" 
d="M126 191v0q-96 0 -96 -85v-53q39 -53 53 -53h85q53 27 53 85v42q-37 64 -95 64v0z" />
    <glyph glyph-name="ellipsis" unicode="&#x2026;" horiz-adv-x="865" 
d="M756 140v0q-67 39 -117 -31q-23 -41 37 -106q56 -33 120 16q29 50 -4 100l-36 21v0zM463 140v0q-67 39 -116 -31q-24 -41 36 -106q56 -33 120 16q29 50 -3 100l-37 21v0zM170 140v0q-67 39 -116 -31q-24 -41 37 -106q55 -33 119 16q29 50 -3 100l-37 21v0z" />
    <glyph glyph-name="Euro" unicode="&#x20ac;" horiz-adv-x="682" 
d="M657 764v0q-281 0 -414 -244q0 -57 -202 -74v-21q0 -43 149 -43l-11 -21q-149 -28 -149 -64v-21l53 -11h85q22 0 22 -42q99 -202 382 -202h21q287 0 287 117v32q0 24 -53 32h-11q-115 -64 -202 -64q-318 17 -318 127h117l53 11v53q0 18 -22 21h-127q-18 0 -21 21v11h265
q53 0 64 32v21q0 25 -64 32h-223v11q118 201 319 201h32q118 0 180 -74h11v43q-32 116 -223 116v0z" />
    <glyph glyph-name="trademark" unicode="&#x2122;" horiz-adv-x="654" 
d="M423 924v0q-86 0 -106 -191q7 -85 32 -85h21q36 180 53 180q11 -155 32 -170q64 0 64 149h10q15 -159 32 -181l53 11v138q0 85 -85 128q-18 0 -53 -22q-38 42 -53 43v0zM296 945v0q-170 0 -266 -106l21 -32q38 0 96 32h11v-64q0 -170 32 -170h21q21 0 21 21v234h21
q96 0 96 53q-11 21 -11 32h-42v0z" />
  </font>
</defs>
</svg>
